<svg xmlns="http://www.w3.org/2000/svg" width="765" height="179.969" viewBox="0 0 765 179.969">
  <g id="Group_92" data-name="Group 92" transform="translate(-61.105 -364.105)">
    <rect id="Rectangle_9" data-name="Rectangle 9" width="260.079" height="179.969" transform="translate(61.105 364.105)" fill="#b2fe92"/>
    <g id="Rectangle_10" data-name="Rectangle 10" transform="translate(319.686 364.105)" fill="none" stroke="#b2fe92" stroke-miterlimit="10" stroke-width="2">
      <rect width="506.419" height="179.969" stroke="none"/>
      <rect x="1" y="1" width="504.419" height="177.969" fill="none"/>
    </g>
    <path id="Path_9" data-name="Path 9" d="M128.868,470.421,118.285,439.1H89.576L78.411,470.421H89.286v2.755H67.1v-2.755h6.817l36.972-99.613h11.89l36.542,99.613h6.667v2.755H118.575v-2.755Zm-24.359-72.5L90.881,435.912h26.244Z" transform="translate(8.491 30.8)"/>
    <path id="Path_10" data-name="Path 10" d="M157.408,389.518q-5.369,0-9.425,6.96a32.213,32.213,0,0,0-4.06,16.53v38.859h10.292v2.61H108.979v-2.61h7.975v-63.8h-7.975v-2.61h34.944v13.92A19.663,19.663,0,0,1,151.173,388a19.885,19.885,0,0,1,12.18-3.987,15.988,15.988,0,0,1,11.092,3.843q4.274,3.842,4.277,10.875t-3.19,10.8q-3.193,3.774-9.787,3.77t-9.717-4.35q-3.117-4.35-.8-12.035h5.22Q164.074,389.518,157.408,389.518Z" transform="translate(67.819 49.499)"/>
    <path id="Path_11" data-name="Path 11" d="M146.353,447.767V402.092h-7.975v-2.61h7.975v-18.7l26.969-6.67v25.375h18.85v2.61h-18.85v48.864q0,6.819,1.378,10t5.73,3.19q4.346,0,7.61-4.35t4.277-11.89l2.467.29q-1.164,10-6.382,15.877t-17.255,5.872q-12.035,0-18.412-4.785T146.353,447.767Z" transform="translate(109.466 35.475)"/>
    <path id="Path_12" data-name="Path 12" d="M278.1,420.177q0,29.873-16.82,41.614-15.518,10.875-42.629,10.875H177.617v-2.755h9.572V373.923h-9.572v-2.755h44.8q27.843,0,41.762,11.382T278.1,420.177Zm-62.639,49.734h5.51q14.641,0,20.952-10.367t6.307-34.727v-8.41q0-32.624-12.472-39.294-5.945-3.186-16.817-3.19h-3.48Z" transform="translate(165.053 31.31)" fill="#b2fe92"/>
    <path id="Path_13" data-name="Path 13" d="M323.4,420.177q0,29.873-16.82,41.614-15.515,10.875-42.629,10.875H222.917v-2.755h9.57V373.923h-9.57v-2.755h44.8q27.839,0,41.759,11.382T323.4,420.177Zm-62.639,49.734h5.51q14.645,0,20.952-10.367t6.307-34.727v-8.41q0-32.624-12.47-39.294-5.949-3.186-16.82-3.19h-3.48Z" transform="translate(229.226 31.31)" fill="#b2fe92"/>
    <path id="Path_14" data-name="Path 14" d="M268.456,371.168H312.68v2.755h-7.975v95.988h7.975v2.755H268.456v-2.755h7.975V373.923h-7.975Z" transform="translate(293.737 31.31)" fill="#b2fe92"/>
    <path id="Path_15" data-name="Path 15" d="M342.77,373.408q-22.478,0-22.475,43.354v11.455q0,20.59,5.945,32.262t17.545,11.672q15.946,0,29.289-31.029h2.61l-1.015,32.334h-1.595a8.783,8.783,0,0,0-1.595-2.247,3.044,3.044,0,0,0-2.1-.652q-1.381,0-10.512,2.247a77.4,77.4,0,0,1-18.56,2.248q-23.634,0-36.612-12.76T290.716,423.94q0-25.589,13.557-39.512t36.467-13.92a67.376,67.376,0,0,1,17.327,2.247Q366.55,375.007,368,375a3.16,3.16,0,0,0,2.172-.652,8.692,8.692,0,0,0,1.6-2.248h1.595l1.16,31.465h-2.61q-6.525-14.641-13.412-22.4T342.77,373.408Z" transform="translate(325.271 30.375)" fill="#b2fe92"/>
    <path id="Path_16" data-name="Path 16" d="M417.014,371.168l1.447,36.394H415.71q-6.384-19.281-11.31-26.317t-14.212-7.033H388.45v95.408h12.325v3.045H347.851v-3.045h12.322V374.213h-1.882q-9.28,0-14.355,7.323t-11.165,26.027h-2.755l1.448-36.394Z" transform="translate(380.944 31.31)" fill="#b2fe92"/>
  </g>
</svg>
